281e07ae6591ef5690c0b8d06e0be36b *tests/data/fate/generic-tags-remux-mov.mp4
10376 tests/data/fate/generic-tags-remux-mov.mp4
#extradata 0:        5, 0x03460155
#tb 0: 1/44100
#media_type 0: audio
#codec_id 0: aac
#sample_rate 0: 44100
#channel_layout_name 0: mono
0,      -1024,      -1024,     1024,      291, 0xf6b689e2, F=0x5, S=1, Skip Samples,       10, 0x00240004
0,          0,          0,     1024,      218, 0xeeba64eb
0,       1024,       1024,     1024,      178, 0x1e2251d6
0,       2048,       2048,     1024,      200, 0x45eb6039
0,       3072,       3072,     1024,      199, 0xa8025c6f
0,       4096,       4096,     1024,      200, 0x94935f7a
0,       5120,       5120,     1024,      197, 0xe01d5f54
0,       6144,       6144,     1024,      200, 0xf3575c57
0,       7168,       7168,     1024,      193, 0x5b72575b
0,       8192,       8192,     1024,      202, 0x86f65f5e
0,       9216,       9216,     1024,      213, 0x055566de
0,      10240,      10240,     1024,      200, 0xe9395eba
0,      11264,      11264,     1024,      195, 0x00b159d3
0,      12288,      12288,     1024,      186, 0xfc3e52d6
0,      13312,      13312,     1024,      184, 0x5c255159
0,      14336,      14336,     1024,      204, 0x45af5ac5
0,      15360,      15360,     1024,      199, 0xa7e75ad8
0,      16384,      16384,     1024,      198, 0x77c560fa
0,      17408,      17408,     1024,      200, 0xbd965d9a
0,      18432,      18432,     1024,      201, 0x2557601b
0,      19456,      19456,     1024,      207, 0x409f66ac
0,      20480,      20480,     1024,      196, 0x33b758d0
0,      21504,      21504,     1024,      204, 0xe9895c20
0,      22528,      22528,     1024,      196, 0xa6845486
0,      23552,      23552,     1024,      200, 0xd6686088
0,      24576,      24576,     1024,      206, 0x5bdc637b
0,      25600,      25600,     1024,      208, 0x40136455
0,      26624,      26624,     1024,      191, 0x20785ad4
0,      27648,      27648,     1024,      200, 0xd4df621a
0,      28672,      28672,     1024,      194, 0x621e562c
0,      29696,      29696,     1024,      201, 0x88135d8b
0,      30720,      30720,     1024,      206, 0xdff75fae
0,      31744,      31744,     1024,      188, 0x253b54ab
0,      32768,      32768,     1024,      192, 0x96e857f0
0,      33792,      33792,     1024,      206, 0xeb0a5e85
0,      34816,      34816,     1024,      206, 0x46d25cf7
0,      35840,      35840,     1024,      205, 0x0a0662e1
0,      36864,      36864,     1024,      180, 0xbb6d54e5
0,      37888,      37888,     1024,      217, 0x3aa86723
0,      38912,      38912,     1024,      203, 0x8a705e41
0,      39936,      39936,     1024,      195, 0x8f5b6072
0,      40960,      40960,     1024,      194, 0x16a85d46
0,      41984,      41984,     1024,      198, 0x0b765ac6
0,      43008,      43008,     1024,      283, 0x8f9389f3
0,      44032,      44032,       68,        5, 0x047801ec, S=1, Skip Samples,       10, 0x047700bf
[FORMAT]
TAG:major_brand=isom
TAG:minor_version=512
TAG:compatible_brands=isomiso2mp41
TAG:title=Intro
TAG:artist=M83
TAG:album_artist=M83
TAG:composer=Anthony Gonzalez
TAG:album=Hurry Up, We're Dreaming
TAG:date=2011-10-17
TAG:comment=I love M83
TAG:genre=Electronic
TAG:copyright=2011 M83 Recording Inc
TAG:track=1/11
TAG:disc=1
TAG:disc_subtitle=Hurry Up
[/FORMAT]
